<svg width="23" height="23" viewBox="0 0 23 23" xmlns="http://www.w3.org/2000/svg">
<path d="M11.5336 10.3286C12.5562 10.3286 13.3851 9.4997 13.3851 8.47717C13.3851 7.45465 12.5562 6.62573 11.5336 6.62573C10.5111 6.62573 9.68219 7.45465 9.68219 8.47717C9.68219 9.4997 10.5111 10.3286 11.5336 10.3286Z" />
<path d="M11.4998 0C5.14871 0 0 5.14883 0 11.4999C0 17.8508 5.14871 23 11.4998 23C17.8509 23 23 17.8508 23 11.4999C23 5.14883 17.8509 0 11.4998 0ZM11.476 5.26537C11.4841 5.26537 11.4921 5.26498 11.5 5.2646C11.508 5.26498 11.5159 5.26537 11.5241 5.26537C13.4618 5.29596 15.0381 6.89746 15.0381 8.83561C15.0381 11.2053 12.5062 13.6047 11.5 14.4645C11.4328 14.407 11.3583 14.3422 11.2785 14.2712C11.2772 14.27 11.2759 14.269 11.2748 14.2678C10.1613 13.2783 7.96204 11.0443 7.96204 8.83561C7.96197 6.89746 9.53841 5.29603 11.476 5.26537ZM11.5499 17.806C9.42908 17.806 7.28192 17.1976 7.28192 16.0351C7.28192 15.2193 8.33917 14.6768 9.70225 14.4255C9.96591 14.6906 10.2155 14.9242 10.4344 15.1193C8.94968 15.2851 8.07735 15.7552 8.07735 16.0349C8.07735 16.3787 9.39566 17.0104 11.5499 17.0104C13.7042 17.0104 15.0228 16.3787 15.0228 16.0349C15.0228 15.7494 14.1136 15.2676 12.575 15.1109C12.7959 14.9137 13.0474 14.6778 13.3131 14.41C14.7171 14.6544 15.8181 15.2024 15.8181 16.0351C15.8181 17.1976 13.671 17.806 11.5499 17.806Z"/>
</svg>
