<svg width="23" height="23" viewBox="0 0 23 23" xmlns="http://www.w3.org/2000/svg">
<path d="M19.6305 3.36704C15.1388 -1.1233 7.85739 -1.12222 3.36704 3.36951C-1.1233 7.86124 -1.12222 15.1426 3.36951 19.633C7.86125 24.1233 15.1426 24.1222 19.633 19.6305C21.7895 17.4733 23.0007 14.5478 23 11.4975C22.9994 8.44779 21.7873 5.5232 19.6305 3.36704ZM17.4163 16.0194C17.4159 16.0199 17.4154 16.0204 17.4148 16.0209V16.0171L16.8321 16.5959C16.0786 17.359 14.9811 17.6729 13.938 17.4239C12.887 17.1426 11.888 16.6948 10.9786 16.0976C10.1338 15.5577 9.35095 14.9265 8.64415 14.2154C7.99381 13.5698 7.40956 12.861 6.89997 12.0994C6.34258 11.2799 5.9014 10.3872 5.58897 9.44672C5.23081 8.34182 5.5276 7.12942 6.35565 6.3149L7.03797 5.63258C7.22767 5.44202 7.53593 5.44135 7.72644 5.63106C7.72693 5.63155 7.72747 5.63204 7.72797 5.63258L9.88228 7.7869C10.0728 7.9766 10.0735 8.28486 9.88381 8.47537C9.88332 8.47586 9.88282 8.47636 9.88228 8.4769L8.61728 9.7419C8.25432 10.1009 8.20867 10.6714 8.50997 11.0836C8.96749 11.7115 9.47381 12.3023 10.0241 12.8508C10.6377 13.467 11.3048 14.0276 12.0175 14.5259C12.4293 14.8132 12.9875 14.7647 13.3438 14.4109L14.5666 13.1689C14.7563 12.9784 15.0646 12.9777 15.2551 13.1674C15.2556 13.1679 15.2561 13.1684 15.2566 13.1689L17.4148 15.3309C17.6054 15.5206 17.6061 15.8288 17.4163 16.0194Z" />
</svg>
