<svg width="23" height="23" viewBox="0 0 23 23" xmlns="http://www.w3.org/2000/svg">
<path d="M11.4998 0C5.14866 0 0 5.14901 0 11.4998C0 17.8505 5.14866 23 11.4998 23C17.8509 23 23 17.8508 23 11.4998C23 5.1487 17.851 0 11.4998 0Z"/>
<path d="M5.63768 8.08091H8.59537C8.68572 7.07933 8.96459 6.17986 9.36524 5.48464C9.8955 4.56554 10.6497 3.99994 11.502 3.99994C12.3544 3.99994 13.1046 4.56947 13.6388 5.48464C14.0394 6.17593 14.3183 7.07933 14.4086 8.08091H17.3624C17.712 8.08091 18.0262 8.36764 17.9987 8.71722L17.4056 16.9931C17.331 18.03 16.6789 18.6231 15.7323 18.6231H7.27168C6.21901 18.6231 5.66125 17.8886 5.5984 16.9931L5.00137 8.72114C4.9778 8.37157 5.2881 8.08091 5.63768 8.08091ZM9.33381 8.08091H13.6623C13.5759 7.21287 13.3363 6.44302 12.9946 5.85386C12.6018 5.16649 12.0676 4.73836 11.502 4.73836C10.9325 4.73836 10.4022 5.16649 10.0016 5.85778C9.65983 6.44302 9.42416 7.2168 9.33381 8.08091Z" fill="white"/>
<path d="M9.35347 15.7203C9.21599 15.626 9.18064 15.4414 9.27491 15.3039C9.36918 15.1665 9.55379 15.1311 9.69126 15.2254C9.77768 15.2843 9.86802 15.3432 9.96621 15.4021C10.6575 15.8224 11.2938 16.0306 11.8241 16.0306C12.3033 16.0306 12.6922 15.8499 12.9396 15.4846C12.9553 15.4571 12.971 15.4414 12.975 15.4296C13.0457 15.3157 13.0967 15.194 13.1321 15.0761C13.2028 14.8326 13.191 14.5812 13.0928 14.3534C12.9868 14.1138 12.7825 13.8821 12.4643 13.6896C12.2522 13.56 11.9891 13.4461 11.6709 13.3597C10.8618 13.1319 10.2647 12.8098 9.94265 12.3777C9.58914 11.9025 9.56164 11.329 9.93872 10.6338C10.1901 10.1743 10.7047 9.88753 11.3567 9.83646C11.9184 9.79326 12.594 9.9268 13.2813 10.2764C13.4306 10.351 13.4895 10.5317 13.411 10.6809C13.3324 10.8302 13.1556 10.8891 13.0064 10.8106C12.4211 10.512 11.8634 10.3981 11.3999 10.4335C10.956 10.4688 10.6182 10.6417 10.469 10.9166C10.2176 11.3762 10.2215 11.7375 10.4258 12.0125C10.6614 12.3306 11.1524 12.5781 11.8359 12.7705C12.2051 12.8766 12.5193 13.0101 12.7786 13.1672C13.2067 13.4265 13.4934 13.7525 13.6466 14.106C13.8037 14.4713 13.8234 14.8562 13.7173 15.2332C13.6702 15.4021 13.5956 15.571 13.4934 15.736C13.4699 15.7714 13.4542 15.7989 13.4424 15.8185C13.0771 16.3566 12.5154 16.6237 11.832 16.6276C11.1917 16.6276 10.4454 16.3919 9.65984 15.9128C9.56164 15.8578 9.45952 15.7949 9.35347 15.7203Z"/>
</svg>
